<?xml version="1.0" encoding="UTF-8"?>
<svg width="136px" height="37px" viewBox="0 0 136 37" version="1.1" xmlns="http://www.w3.org/2000/svg" xmlns:xlink="http://www.w3.org/1999/xlink">
    <!-- Generator: Sketch 45.1 (43504) - http://www.bohemiancoding.com/sketch -->
    <title>incode</title>
    <desc>Created with Sketch.</desc>
    <defs></defs>
    <g id="Page-1" stroke="none" stroke-width="1" fill="none" fill-rule="evenodd">
        <g id="Artboard-Copy-2" transform="translate(-87.000000, -84.000000)" fill="#FFFFFF">
            <path d="M87.4884275,97.7736556 L87.4884275,119.606365 L95.3032676,119.606365 L95.3032676,97.7736556 L87.4884275,97.7736556 Z M87,88.688904 C87,91.1310415 88.95371,93.0847516 91.3958475,93.0847516 C93.837985,93.0847516 95.7916951,91.1310415 95.7916951,88.688904 C95.7916951,86.2467665 93.837985,84.2930565 91.3958475,84.2930565 C88.95371,84.2930565 87,86.2467665 87,88.688904 Z M98.4563384,119.606365 L106.271178,119.606365 L106.271178,107.884105 C106.271178,106.565351 106.759606,105.148911 107.54109,104.41627 C108.176046,103.830157 109.201744,103.390572 110.422812,103.390572 C111.204296,103.390572 112.181151,103.5371 112.913793,104.318584 C113.93949,105.393125 113.890648,107.297992 113.890648,108.567903 L113.890648,119.606365 L121.705488,119.606365 L121.705488,105.735024 C121.705488,103.341729 121.510117,101.485705 119.654092,99.6296801 C117.84691,97.8224983 115.453616,97.2852281 113.206849,97.2852281 C111.301982,97.2852281 108.42026,97.6759701 106.271178,100.50885 L106.271178,97.7736556 L98.4563384,97.7736556 L98.4563384,119.606365 Z M141.367408,112.573009 C139.950968,113.794078 138.485686,114.038291 137.362303,114.038291 C135.35975,114.038291 134.089838,113.159122 133.357197,112.377638 C132.429185,111.35194 131.9896,109.9355 131.9896,108.714432 C131.9896,107.44452 132.429185,106.02808 133.503725,104.95354 C134.285209,104.172056 135.457435,103.439415 137.31346,103.439415 C138.974113,103.439415 140.34171,104.123213 141.367408,104.855854 L141.367408,98.3109258 C139.413698,97.3340708 137.655359,97.0898571 136.287762,97.0898571 C132.575713,97.0898571 129.547463,98.4574541 127.496067,100.411164 C125.298143,102.560245 123.979389,105.637338 123.979389,108.86096 C123.979389,112.084581 125.298143,115.015146 127.349539,117.017699 C128.912507,118.531824 131.696544,120.339006 135.945863,120.339006 C137.557674,120.339006 139.26717,120.143635 141.367408,119.117937 L141.367408,112.573009 Z M155.90084,103.683628 C154.630928,103.683628 153.263331,104.269741 152.384162,105.100068 C151.407307,106.02808 150.870037,107.395677 150.870037,108.665589 C150.870037,109.984343 151.504992,111.254255 152.384162,112.133424 C153.312174,113.061436 154.582086,113.598707 155.90084,113.598707 C157.170751,113.598707 158.440663,113.061436 159.368675,112.133424 C160.34553,111.205412 160.8828,109.9355 160.8828,108.665589 C160.8828,107.493363 160.34553,106.076923 159.368675,105.100068 C158.489506,104.269741 157.121909,103.683628 155.90084,103.683628 Z M168.990697,108.665589 C168.990697,111.596154 168.013842,114.380191 165.620547,116.724643 C162.738825,119.557522 159.368675,120.339006 155.851997,120.339006 C152.677218,120.339006 149.16054,119.70405 146.13229,116.724643 C143.738995,114.380191 142.76214,111.596154 142.76214,108.665589 C142.76214,104.758169 144.520479,102.218346 146.13229,100.655378 C147.939472,98.8970389 151.11425,97.0410143 155.851997,97.0410143 C160.687429,97.0410143 163.813365,98.9458816 165.620547,100.655378 C167.232358,102.218346 168.990697,104.758169 168.990697,108.665589 Z M196.027873,84 L196.027873,119.606365 L188.213033,119.606365 L188.213033,117.21307 C186.015109,120.04595 183.133387,120.339006 181.619261,120.339006 C178.493325,120.339006 176.002345,119.313308 173.95095,117.310756 C171.753026,115.161675 170.434272,112.084581 170.434272,108.616746 C170.434272,104.904697 171.99724,101.876447 173.999792,99.9715794 C176.148873,97.9201838 179.030596,97.0410143 181.716947,97.0410143 C184.696355,97.0410143 186.796593,98.3597686 188.213033,99.8738939 L188.213033,84 L196.027873,84 Z M183.426443,113.696392 C184.696355,113.696392 185.966266,113.110279 186.796593,112.377638 C187.822291,111.449626 188.457246,109.984343 188.457246,108.665589 C188.457246,107.44452 187.773448,105.979238 186.991964,105.148911 C186.112794,104.220899 184.891726,103.683628 183.426443,103.683628 C181.76579,103.683628 180.642406,104.41627 179.958608,105.100068 C179.079438,105.979238 178.444483,107.346835 178.444483,108.812117 C178.444483,109.9355 178.93291,111.205412 179.958608,112.23111 C181.033148,113.30565 182.30306,113.696392 183.426443,113.696392 Z M222.38125,109.300545 L222.38125,110.130871 L206.116614,110.130871 C206.116614,111.303097 206.556199,112.866065 207.484211,113.794078 C207.972639,114.282505 208.949494,114.868618 210.707833,114.868618 C210.903204,114.868618 212.270801,114.819775 213.247656,114.282505 C213.736083,113.989449 214.273353,113.501021 214.615253,112.817223 L222.088193,112.817223 C221.746294,114.038291 221.062496,115.747788 219.450685,117.310756 C217.838874,118.873724 215.299051,120.339006 210.561304,120.339006 C207.679582,120.339006 204.211747,119.70405 201.525396,117.017699 C200.108956,115.601259 198.301774,112.914908 198.301774,108.763274 C198.301774,105.100068 199.669371,102.169503 201.574238,100.313479 C203.38142,98.5551396 206.2143,97.1386998 210.512462,97.1386998 C213.052285,97.1386998 216.324749,97.6759701 218.913415,100.118108 C221.990508,103.048673 222.38125,106.858407 222.38125,109.300545 Z M206.360828,105.637338 L215.201366,105.637338 C215.005995,104.807012 214.517567,103.878999 213.931454,103.292886 C212.905756,102.267189 211.489317,102.12066 210.707833,102.12066 C209.389078,102.12066 208.363381,102.46256 207.533054,103.292886 C206.995784,103.878999 206.507356,104.660483 206.360828,105.637338 Z" id="incode"></path>
        </g>
    </g>
</svg>